<?xml version="1.0" encoding="UTF-8" standalone="no"?>
<!-- Created with Inkscape (http://www.inkscape.org/) -->

<svg
   xmlns:dc="http://purl.org/dc/elements/1.1/"
   xmlns:cc="http://creativecommons.org/ns#"
   xmlns:rdf="http://www.w3.org/1999/02/22-rdf-syntax-ns#"
   xmlns:svg="http://www.w3.org/2000/svg"
   xmlns="http://www.w3.org/2000/svg"
   xmlns:sodipodi="http://sodipodi.sourceforge.net/DTD/sodipodi-0.dtd"
   xmlns:inkscape="http://www.inkscape.org/namespaces/inkscape"
   width="1000"
   height="1000"
   viewBox="0 0 264.58333 264.58334"
   version="1.1"
   id="svg8"
   inkscape:version="0.92.3 (2405546, 2018-03-11)"
   sodipodi:docname="Иконка.svg">
  <defs
     id="defs2" />
  <sodipodi:namedview
     id="base"
     pagecolor="#ffffff"
     bordercolor="#666666"
     borderopacity="1.0"
     inkscape:pageopacity="0.0"
     inkscape:pageshadow="2"
     inkscape:zoom="0.64209777"
     inkscape:cx="382.90306"
     inkscape:cy="480.17672"
     inkscape:document-units="mm"
     inkscape:current-layer="layer1"
     showgrid="false"
     units="px"
     showguides="true"
     inkscape:guide-bbox="true"
     inkscape:window-width="1920"
     inkscape:window-height="1018"
     inkscape:window-x="-8"
     inkscape:window-y="-8"
     inkscape:window-maximized="1"
     inkscape:measure-start="1000,160"
     inkscape:measure-end="1000,0"
     inkscape:lockguides="false">
    <inkscape:grid
       type="xygrid"
       id="grid1368" />
    <sodipodi:guide
       position="31.75,291.04167"
       orientation="1,0"
       id="guide1387"
       inkscape:locked="false" />
    <sodipodi:guide
       position="232.83333,296.33334"
       orientation="1,0"
       id="guide1389"
       inkscape:locked="false" />
    <sodipodi:guide
       position="-31.75,232.83333"
       orientation="0,1"
       id="guide1391"
       inkscape:locked="false" />
    <sodipodi:guide
       position="-37.041667,31.75"
       orientation="0,1"
       id="guide1393"
       inkscape:locked="false" />
  </sodipodi:namedview>
  <metadata
     id="metadata5">
    <rdf:RDF>
      <cc:Work
         rdf:about="">
        <dc:format>image/svg+xml</dc:format>
        <dc:type
           rdf:resource="http://purl.org/dc/dcmitype/StillImage" />
        <dc:title></dc:title>
      </cc:Work>
    </rdf:RDF>
  </metadata>
  <g
     inkscape:label="Layer 1"
     inkscape:groupmode="layer"
     id="layer1"
     transform="translate(0,-32.41665)">
    <rect
       style="opacity:1;fill:#c76e40;fill-opacity:0.58974361;stroke:none;stroke-width:0.37041664;stroke-linecap:square;stroke-miterlimit:4;stroke-dasharray:none;stroke-opacity:1;paint-order:markers fill stroke"
       id="rect1370"
       width="264.58334"
       height="132.29167"
       x="0"
       y="32.416649" />
    <rect
       style="opacity:1;fill:#919191;fill-opacity:0.58974361;stroke:none;stroke-width:0.37041667;stroke-linecap:square;stroke-miterlimit:4;stroke-dasharray:none;stroke-opacity:1;paint-order:markers fill stroke"
       id="rect1370-1"
       width="264.58337"
       height="132.29167"
       x="-3.1153362e-005"
       y="164.70831" />
    <rect
       style="opacity:1;fill:#696969;fill-opacity:0.50980395;stroke:none;stroke-width:0.54772252;stroke-linecap:square;stroke-miterlimit:4;stroke-dasharray:none;stroke-opacity:1;paint-order:markers fill stroke"
       id="rect1431"
       width="264.58334"
       height="1.5874995"
       x="-6.5204141e-013"
       y="163.91457" />
    <rect
       style="opacity:1;fill:#696969;fill-opacity:0.50980395;stroke:none;stroke-width:0.54772258;stroke-linecap:square;stroke-miterlimit:4;stroke-dasharray:none;stroke-opacity:1;paint-order:markers fill stroke"
       id="rect1431-6"
       width="264.58337"
       height="1.5874995"
       x="-2.8749308e-005"
       y="207.57082" />
    <rect
       style="opacity:1;fill:#696969;fill-opacity:0.50980395;stroke:none;stroke-width:0.54772258;stroke-linecap:square;stroke-miterlimit:4;stroke-dasharray:none;stroke-opacity:1;paint-order:markers fill stroke"
       id="rect1431-8"
       width="264.58337"
       height="1.5874995"
       x="-4.5006476e-005"
       y="251.22707" />
    <rect
       style="opacity:1;fill:#696969;fill-opacity:0.50854701;stroke:none;stroke-width:0.54772258;stroke-linecap:square;stroke-miterlimit:4;stroke-dasharray:none;stroke-opacity:1;paint-order:markers fill stroke"
       id="rect1431-6-1"
       width="264.58337"
       height="1.5874995"
       x="-3.5603844e-005"
       y="120.25832" />
    <rect
       style="opacity:1;fill:#696969;fill-opacity:0.50980395;stroke:none;stroke-width:0.54772258;stroke-linecap:square;stroke-miterlimit:4;stroke-dasharray:none;stroke-opacity:1;paint-order:markers fill stroke"
       id="rect1431-6-9"
       width="264.58337"
       height="1.5874995"
       x="-3.5603844e-005"
       y="76.602066" />
    <rect
       style="opacity:1;fill:#696969;fill-opacity:0.50980395;stroke:none;stroke-width:0.54772258;stroke-linecap:square;stroke-miterlimit:4;stroke-dasharray:none;stroke-opacity:1;paint-order:markers fill stroke"
       id="rect1431-6-9-5"
       width="264.58337"
       height="1.5874995"
       x="-297.00235"
       y="84.665771"
       transform="rotate(-90.001579)" />
    <rect
       style="opacity:1;fill:#696969;fill-opacity:0.50980395;stroke:none;stroke-width:0.54772258;stroke-linecap:square;stroke-miterlimit:4;stroke-dasharray:none;stroke-opacity:1;paint-order:markers fill stroke"
       id="rect1431-6-9-5-4"
       width="264.58337"
       height="1.5874995"
       x="-297.00497"
       y="178.32826"
       transform="rotate(-90.001579)" />
    <g
       id="g889"
       transform="matrix(0.32291666,0,0,0.32291666,50.250692,82.295563)">
      <g
         id="g10">
        <path
           id="path2"
           d="m 254,400.35 c -16.7,0 -32.7,-2.8 -47.7,-8 l -52,70.5 c 30.2,14.5 64,22.6 99.7,22.6 35.7,0 69.4,-8.1 99.6,-22.6 l -52,-70.6 c -14.9,5.2 -30.9,8.1 -47.6,8.1 z"
           style="fill:#f2f2f2"
           inkscape:connector-curvature="0" />
        <path
           id="path4"
           d="m 400.3,254.05 c 0,16.7 -2.8,32.7 -8,47.7 l 70.6,52 c 14.5,-30.2 22.6,-64 22.6,-99.6 0,-35.7 -8.1,-69.5 -22.6,-99.7 l -70.5,52 c 5,14.9 7.9,30.9 7.9,47.6 z"
           style="fill:#f2f2f2"
           inkscape:connector-curvature="0" />
        <path
           id="path6"
           d="m 107.7,254.05 c 0,-16.7 2.8,-32.7 8,-47.6 l -70.5,-52 c -14.5,30.2 -22.6,64 -22.6,99.7 0,35.7 8.1,69.4 22.6,99.6 l 70.6,-52 c -5.2,-15 -8.1,-31 -8.1,-47.7 z"
           style="fill:#f2f2f2"
           inkscape:connector-curvature="0" />
        <path
           id="path8"
           d="m 254,107.75 c 16.7,0 32.7,2.8 47.7,8 l 52,-70.6 c -30.2,-14.5 -64,-22.6 -99.6,-22.6 -35.7,0 -69.5,8.1 -99.7,22.6 l 52,70.6 c 14.9,-5.2 30.9,-8 47.6,-8 z"
           style="fill:#f2f2f2"
           inkscape:connector-curvature="0" />
      </g>
      <g
         id="g20">
        <path
           id="path12"
           d="m 392.3,206.35 70.6,-52 C 440,106.75 401.3,68.05 353.6,45.25 l -52,70.6 c 42.4,14.6 76,48.2 90.7,90.5 z"
           style="fill:#f2705b"
           inkscape:connector-curvature="0" />
        <path
           id="path14"
           d="m 115.7,301.65 -70.6,52 c 22.9,47.7 61.6,86.4 109.2,109.2 l 52,-70.5 c -42.3,-14.7 -75.9,-48.3 -90.6,-90.7 z"
           style="fill:#f2705b"
           inkscape:connector-curvature="0" />
        <path
           id="path16"
           d="m 392.3,301.75 c -14.6,42.4 -48.2,76 -90.6,90.6 l 52,70.6 c 47.7,-22.8 86.4,-61.5 109.2,-109.2 z"
           style="fill:#f2705b"
           inkscape:connector-curvature="0" />
        <path
           id="path18"
           d="m 206.3,115.75 -52,-70.6 C 106.7,68.05 68,106.75 45.2,154.35 l 70.5,52 c 14.6,-42.3 48.2,-75.9 90.6,-90.6 z"
           style="fill:#f2705b"
           inkscape:connector-curvature="0" />
      </g>
      <g
         id="g38">
        <path
           id="path22"
           d="M 26.6,140.75 C 9.6,174.85 0,213.25 0,254.05 c 0,40.8 9.6,79.2 26.6,113.3 l 18.5,-13.7 c -14.5,-30.2 -22.6,-64 -22.6,-99.6 0,-35.7 8.1,-69.5 22.6,-99.7 z"
           style="fill:#cdd5df"
           inkscape:connector-curvature="0" />
        <path
           id="path24"
           d="m 254,485.45 c -35.7,0 -69.5,-8.1 -99.7,-22.6 l -13.7,18.5 c 34.1,17 72.6,26.6 113.3,26.6 40.8,0 79.2,-9.6 113.3,-26.6 l -13.7,-18.5 c -30.1,14.5 -63.8,22.6 -99.5,22.6 z"
           style="fill:#cdd5df"
           inkscape:connector-curvature="0" />
        <path
           id="path26"
           d="m 140.7,26.65 13.7,18.5 c 30.2,-14.5 64,-22.6 99.7,-22.6 35.7,0 69.5,8.1 99.6,22.6 l 13.6,-18.5 C 333.2,9.65 294.8,0.05 254,0.05 c -40.8,0 -79.2,9.6 -113.3,26.6 z"
           style="fill:#cdd5df"
           inkscape:connector-curvature="0" />
        <path
           id="path28"
           d="m 481.4,140.75 -18.5,13.7 c 14.5,30.2 22.6,64 22.6,99.7 0,35.7 -8.1,69.5 -22.6,99.6 l 18.5,13.6 c 17,-34.1 26.6,-72.5 26.6,-113.3 0,-40.8 -9.6,-79.2 -26.6,-113.3 z"
           style="fill:#cdd5df"
           inkscape:connector-curvature="0" />
        <path
           id="path30"
           d="m 254,107.75 c -16.7,0 -32.7,2.8 -47.7,8 l 14.1,19.2 c 10.7,-3 21.9,-4.6 33.5,-4.6 11.6,0 22.9,1.6 33.5,4.6 l 14.1,-19.2 c -14.8,-5.2 -30.8,-8 -47.5,-8 z"
           style="fill:#cdd5df"
           inkscape:connector-curvature="0" />
        <path
           id="path32"
           d="m 115.7,206.45 c -5.2,14.9 -8,30.9 -8,47.6 0,16.7 2.8,32.7 8,47.6 l 19.2,-14.1 c -3,-10.7 -4.6,-21.9 -4.6,-33.5 0,-11.6 1.6,-22.8 4.6,-33.5 z"
           style="fill:#cdd5df"
           inkscape:connector-curvature="0" />
        <path
           id="path34"
           d="m 254,377.75 c -11.6,0 -22.9,-1.6 -33.5,-4.6 l -14.1,19.2 c 15,5.2 31,8 47.7,8 16.7,0 32.7,-2.8 47.7,-8 l -14.1,-19.2 c -10.8,3 -22.1,4.6 -33.7,4.6 z"
           style="fill:#cdd5df"
           inkscape:connector-curvature="0" />
        <path
           id="path36"
           d="m 373.1,220.55 c 3,10.7 4.6,21.9 4.6,33.5 0,11.6 -1.6,22.9 -4.6,33.5 l 19.2,14.1 c 5.2,-15 8,-31 8,-47.7 0,-16.7 -2.8,-32.7 -8,-47.7 z"
           style="fill:#cdd5df"
           inkscape:connector-curvature="0" />
      </g>
      <g
         id="g56">
        <path
           id="path40"
           d="m 462.8,154.35 18.5,-13.7 c -24.6,-49.3 -64.8,-89.5 -114.1,-114 l -13.6,18.5 c 47.7,22.9 86.4,61.6 109.2,109.2 z"
           style="fill:#f05540"
           inkscape:connector-curvature="0" />
        <path
           id="path42"
           d="m 45.2,353.65 -18.5,13.7 c 24.6,49.3 64.7,89.5 114,114.1 l 13.7,-18.5 C 106.7,440.05 68,401.35 45.2,353.65 Z"
           style="fill:#f05540"
           inkscape:connector-curvature="0" />
        <path
           id="path44"
           d="m 353.6,462.85 13.7,18.5 c 49.3,-24.6 89.5,-64.7 114.1,-114.1 l -18.5,-13.6 c -22.9,47.7 -61.6,86.4 -109.3,109.2 z"
           style="fill:#f05540"
           inkscape:connector-curvature="0" />
        <path
           id="path46"
           d="m 154.3,45.25 -13.7,-18.5 c -49.3,24.6 -89.4,64.7 -114,114 l 18.5,13.7 C 68,106.75 106.7,68.05 154.3,45.25 Z"
           style="fill:#f05540"
           inkscape:connector-curvature="0" />
        <path
           id="path48"
           d="m 373.1,220.55 19.2,-14.1 c -14.6,-42.4 -48.2,-76 -90.6,-90.6 l -14.1,19.2 c 41.3,11.5 73.9,44.1 85.5,85.5 z"
           style="fill:#f05540"
           inkscape:connector-curvature="0" />
        <path
           id="path50"
           d="m 134.9,287.55 -19.2,14.1 c 14.6,42.4 48.2,76 90.6,90.6 l 14.1,-19.2 c -41.4,-11.5 -73.9,-44.2 -85.5,-85.5 z"
           style="fill:#f05540"
           inkscape:connector-curvature="0" />
        <path
           id="path52"
           d="m 392.3,301.75 -19.2,-14.1 c -11.6,41.4 -44.2,73.9 -85.6,85.6 l 14.1,19.2 c 42.4,-14.8 76,-48.4 90.7,-90.7 z"
           style="fill:#f05540"
           inkscape:connector-curvature="0" />
        <path
           id="path54"
           d="m 115.7,206.45 19.2,14.2 c 11.6,-41.4 44.1,-74.1 85.6,-85.6 l -14.1,-19.2 c -42.5,14.6 -76.1,48.2 -90.7,90.6 z"
           style="fill:#f05540"
           inkscape:connector-curvature="0" />
      </g>
      <g
         style="fill:#f2705b;fill-opacity:1"
         id="g823"
         transform="matrix(0.55303679,0,0,0.55303679,113.00565,118.4749)">
        <path
           style="fill:#f2705b;fill-opacity:1"
           d="m 277.33203,384 c 0,11.78125 -9.55078,21.33203 -21.33203,21.33203 -11.78125,0 -21.33203,-9.55078 -21.33203,-21.33203 0,-11.78125 9.55078,-21.33203 21.33203,-21.33203 11.78125,0 21.33203,9.55078 21.33203,21.33203 z m 0,0"
           id="path4-1"
           inkscape:connector-curvature="0" />
        <path
           style="fill:#f2705b;fill-opacity:1"
           d="m 289.76953,269.69531 c -7.55078,3.47656 -12.4375,11.09375 -12.4375,19.39453 v 9.57813 C 277.33203,310.44141 267.79687,320 256,320 c -11.79688,0 -21.33203,-9.55859 -21.33203,-21.33203 v -9.57813 c 0,-24.89843 14.63281,-47.72265 37.22656,-58.15625 21.73828,-10.0039 37.4375,-36.5664 37.4375,-49.60156 C 309.33203,151.9375 285.41797,128 256,128 c -29.41797,0 -53.33203,23.9375 -53.33203,53.33203 0,11.77734 -9.53906,21.33594 -21.33594,21.33594 -11.79687,0 -21.33203,-9.5586 -21.33203,-21.33594 0,-52.92578 43.07031,-95.999999 96,-95.999999 52.92969,0 96,43.074219 96,95.999999 0,28.82422 -25.00391,71.19141 -62.23047,88.36328 z m 0,0"
           id="path6-0"
           inkscape:connector-curvature="0" />
      </g>
    </g>
  </g>
</svg>
