<?xml version="1.0" encoding="UTF-8" standalone="no"?>
<!-- Created with Inkscape (http://www.inkscape.org/) -->

<svg
   xmlns:dc="http://purl.org/dc/elements/1.1/"
   xmlns:cc="http://creativecommons.org/ns#"
   xmlns:rdf="http://www.w3.org/1999/02/22-rdf-syntax-ns#"
   xmlns:svg="http://www.w3.org/2000/svg"
   xmlns="http://www.w3.org/2000/svg"
   xmlns:sodipodi="http://sodipodi.sourceforge.net/DTD/sodipodi-0.dtd"
   xmlns:inkscape="http://www.inkscape.org/namespaces/inkscape"
   width="1000"
   height="1000"
   viewBox="0 0 264.58333 264.58334"
   version="1.1"
   id="svg8"
   inkscape:version="0.92.3 (2405546, 2018-03-11)"
   sodipodi:docname="Иконка.svg">
  <defs
     id="defs2" />
  <sodipodi:namedview
     id="base"
     pagecolor="#ffffff"
     bordercolor="#666666"
     borderopacity="1.0"
     inkscape:pageopacity="0.0"
     inkscape:pageshadow="2"
     inkscape:zoom="0.90806338"
     inkscape:cx="333.03934"
     inkscape:cy="530.12797"
     inkscape:document-units="mm"
     inkscape:current-layer="layer1"
     showgrid="false"
     units="px"
     showguides="true"
     inkscape:guide-bbox="true"
     inkscape:window-width="1920"
     inkscape:window-height="1018"
     inkscape:window-x="-8"
     inkscape:window-y="-8"
     inkscape:window-maximized="1"
     inkscape:measure-start="1000,160"
     inkscape:measure-end="1000,0"
     inkscape:lockguides="false">
    <inkscape:grid
       type="xygrid"
       id="grid1368" />
    <sodipodi:guide
       position="31.75,291.04167"
       orientation="1,0"
       id="guide1387"
       inkscape:locked="false" />
    <sodipodi:guide
       position="232.83333,296.33334"
       orientation="1,0"
       id="guide1389"
       inkscape:locked="false" />
    <sodipodi:guide
       position="-31.75,232.83333"
       orientation="0,1"
       id="guide1391"
       inkscape:locked="false" />
    <sodipodi:guide
       position="-37.041667,31.75"
       orientation="0,1"
       id="guide1393"
       inkscape:locked="false" />
    <sodipodi:guide
       position="270.66875,132.29167"
       orientation="0,1"
       id="guide1633"
       inkscape:locked="false" />
  </sodipodi:namedview>
  <metadata
     id="metadata5">
    <rdf:RDF>
      <cc:Work
         rdf:about="">
        <dc:format>image/svg+xml</dc:format>
        <dc:type
           rdf:resource="http://purl.org/dc/dcmitype/StillImage" />
        <dc:title />
      </cc:Work>
    </rdf:RDF>
  </metadata>
  <g
     inkscape:label="Layer 1"
     inkscape:groupmode="layer"
     id="layer1"
     transform="translate(0,-32.41665)">
    <rect
       style="opacity:1;fill:#c76e40;fill-opacity:0.58974361;stroke:none;stroke-width:0.37041664;stroke-linecap:square;stroke-miterlimit:4;stroke-dasharray:none;stroke-opacity:1;paint-order:markers fill stroke"
       id="rect1370"
       width="264.58334"
       height="132.29167"
       x="0"
       y="32.416649" />
    <rect
       style="opacity:1;fill:#919191;fill-opacity:0.58974361;stroke:none;stroke-width:0.37041667;stroke-linecap:square;stroke-miterlimit:4;stroke-dasharray:none;stroke-opacity:1;paint-order:markers fill stroke"
       id="rect1370-1"
       width="264.58337"
       height="132.29167"
       x="-3.1153362e-005"
       y="164.70831" />
    <rect
       style="opacity:1;fill:#696969;fill-opacity:0.50980395;stroke:none;stroke-width:0.54772252;stroke-linecap:square;stroke-miterlimit:4;stroke-dasharray:none;stroke-opacity:1;paint-order:markers fill stroke"
       id="rect1431"
       width="264.58334"
       height="1.5874995"
       x="-6.5204141e-013"
       y="163.91457" />
    <rect
       style="opacity:1;fill:#696969;fill-opacity:0.50980395;stroke:none;stroke-width:0.54772258;stroke-linecap:square;stroke-miterlimit:4;stroke-dasharray:none;stroke-opacity:1;paint-order:markers fill stroke"
       id="rect1431-6"
       width="264.58337"
       height="1.5874995"
       x="-2.8749308e-005"
       y="207.57082" />
    <rect
       style="opacity:1;fill:#696969;fill-opacity:0.50980395;stroke:none;stroke-width:0.54772258;stroke-linecap:square;stroke-miterlimit:4;stroke-dasharray:none;stroke-opacity:1;paint-order:markers fill stroke"
       id="rect1431-8"
       width="264.58337"
       height="1.5874995"
       x="-4.5006476e-005"
       y="251.22707" />
    <rect
       style="opacity:1;fill:#696969;fill-opacity:0.50854701;stroke:none;stroke-width:0.54772258;stroke-linecap:square;stroke-miterlimit:4;stroke-dasharray:none;stroke-opacity:1;paint-order:markers fill stroke"
       id="rect1431-6-1"
       width="264.58337"
       height="1.5874995"
       x="-3.5603844e-005"
       y="120.25832" />
    <rect
       style="opacity:1;fill:#696969;fill-opacity:0.50980395;stroke:none;stroke-width:0.54772258;stroke-linecap:square;stroke-miterlimit:4;stroke-dasharray:none;stroke-opacity:1;paint-order:markers fill stroke"
       id="rect1431-6-9"
       width="264.58337"
       height="1.5874995"
       x="-3.5603844e-005"
       y="76.602066" />
    <rect
       style="opacity:1;fill:#696969;fill-opacity:0.50980395;stroke:none;stroke-width:0.54772258;stroke-linecap:square;stroke-miterlimit:4;stroke-dasharray:none;stroke-opacity:1;paint-order:markers fill stroke"
       id="rect1431-6-9-5"
       width="264.58337"
       height="1.5874995"
       x="-297.00235"
       y="84.665771"
       transform="rotate(-90.001579)" />
    <rect
       style="opacity:1;fill:#696969;fill-opacity:0.50980395;stroke:none;stroke-width:0.54772258;stroke-linecap:square;stroke-miterlimit:4;stroke-dasharray:none;stroke-opacity:1;paint-order:markers fill stroke"
       id="rect1431-6-9-5-4"
       width="264.58337"
       height="1.5874995"
       x="-297.00497"
       y="178.32826"
       transform="rotate(-90.001579)" />
    <g
       style="fill:none"
       id="009---Keyboard"
       transform="matrix(2.8301694,0,0,2.8301694,40.823076,74.918957)">
      <rect
         style="fill:#547580"
         id="Rectangle-path"
         height="30"
         rx="5"
         transform="matrix(0.707,-0.707,0.707,0.707,-13.255,32)"
         width="58"
         x="3"
         y="17" />
      <path
         style="fill:#f5efca"
         inkscape:connector-curvature="0"
         id="Shape"
         d="m 30.23,54.98 -4.59,4.6 -0.38,0.33 -11.29,-11.29 c -0.389978,-0.393008 -0.389978,-1.026992 0,-1.42 l 2.83,-2.83 6.36,6.37 c 0.393008,0.389978 1.026992,0.389978 1.42,0 l 0.7,-0.71 z" />
      <path
         style="fill:#f9eab0"
         inkscape:connector-curvature="0"
         id="path4-8"
         d="m 54.98,30.23 -4.95,4.95 -4.95,-4.95 0.71,-0.7 c 0.389978,-0.393008 0.389978,-1.026992 0,-1.42 l -6.37,-6.36 2.13,-2.12 6.36,6.36 c 0.390037,0.387724 1.019962,0.387724 1.41,0 l 0.71,-0.71 z" />
      <path
         style="fill:#2c2f38"
         inkscape:connector-curvature="0"
         id="path6-8"
         d="m 25.99,49.32 -0.71,0.71 -0.7,0.71 c -0.393008,0.389978 -1.026992,0.389978 -1.42,0 l -6.36,-6.37 1.41,-1.41 1.42,-1.41 6.36,6.36 c 0.387724,0.390038 0.387724,1.019963 0,1.41 z" />
      <path
         style="fill:#f9eab0"
         inkscape:connector-curvature="0"
         id="path8-5"
         d="m 35.18,50.03 -4.95,4.95 -4.95,-4.95 0.71,-0.71 c 0.387724,-0.390037 0.387724,-1.019962 0,-1.41 l -6.36,-6.36 2.12,-2.13 6.36,6.37 c 0.393008,0.389978 1.026992,0.389978 1.42,0 l 0.7,-0.71 z" />
      <path
         style="fill:#f5efca"
         inkscape:connector-curvature="0"
         id="path10-7"
         d="m 40.13,45.08 -4.95,4.95 -4.95,-4.95 0.71,-0.71 c 0.387724,-0.390038 0.387724,-1.019963 0,-1.41 l -6.36,-6.36 3.53,-3.54 z" />
      <path
         style="fill:#2c2f38"
         inkscape:connector-curvature="0"
         id="path12-4"
         d="m 30.94,44.37 -0.71,0.71 -0.7,0.71 c -0.393008,0.389978 -1.026992,0.389978 -1.42,0 l -6.36,-6.37 1.41,-1.41 1.42,-1.41 6.36,6.36 c 0.387724,0.390038 0.387724,1.019963 0,1.41 z" />
      <path
         style="fill:#f9eab0"
         inkscape:connector-curvature="0"
         id="path14-0"
         d="m 45.08,40.13 -4.95,4.95 -12.02,-12.02 3.54,-3.53 6.36,6.36 c 0.390037,0.387724 1.019962,0.387724 1.41,0 l 0.71,-0.71 z" />
      <path
         style="fill:#2c2f38"
         inkscape:connector-curvature="0"
         id="path16-5"
         d="m 40.84,34.47 -1.42,1.42 c -0.390037,0.387724 -1.019962,0.387724 -1.41,0 l -6.36,-6.36 2.82,-2.83 6.37,6.36 c 0.387724,0.390037 0.387724,1.019962 0,1.41 z" />
      <path
         style="fill:#f5efca"
         inkscape:connector-curvature="0"
         id="path18-0"
         d="m 50.03,35.18 -4.95,4.95 -4.95,-4.95 0.71,-0.71 c 0.387724,-0.390038 0.387724,-1.019963 0,-1.41 l -6.37,-6.36 2.13,-2.12 6.36,6.36 c 0.390037,0.387724 1.019962,0.387724 1.41,0 l 0.71,-0.71 z" />
      <path
         style="fill:#2c2f38"
         inkscape:connector-curvature="0"
         id="path20-7"
         d="m 45.79,29.53 -0.71,0.7 -0.71,0.71 c -0.390038,0.387724 -1.019963,0.387724 -1.41,0 l -6.36,-6.36 1.41,-1.42 1.41,-1.41 6.37,6.36 c 0.389978,0.393008 0.389978,1.026992 0,1.42 z" />
      <path
         style="fill:#f5efca"
         inkscape:connector-curvature="0"
         id="path22"
         d="m 59.91,25.26 -0.33,0.38 -4.6,4.59 -4.95,-4.95 0.71,-0.7 c 0.389978,-0.393008 0.389978,-1.026992 0,-1.42 L 44.37,16.8 47.2,13.97 c 0.393008,-0.389978 1.026992,-0.389978 1.42,0 z" />
      <path
         style="fill:#2c2f38"
         inkscape:connector-curvature="0"
         id="path24"
         d="m 50.74,24.58 -0.71,0.7 -0.71,0.71 c -0.390037,0.387724 -1.019962,0.387724 -1.41,0 l -6.36,-6.36 1.41,-1.42 1.41,-1.41 6.37,6.36 c 0.389978,0.393008 0.389978,1.026992 0,1.42 z" />
      <rect
         style="fill:#81ccb8"
         id="rect26"
         height="5"
         rx="1"
         transform="matrix(0.707,-0.707,0.707,0.707,-10.765,25.99)"
         width="12"
         x="19.99"
         y="23.49" />
      <circle
         style="fill:#3f5c6c"
         id="Oval"
         cx="11.494"
         cy="40.485001"
         r="3.5" />
      <circle
         style="fill:#3f5c6c"
         id="circle29"
         cx="40.485001"
         cy="11.494"
         r="3.5" />
      <g
         style="fill:#35495e"
         id="g39">
        <path
           inkscape:connector-curvature="0"
           id="path31"
           d="M 17.857,33 C 17.452164,33.000319 17.087076,32.75652 16.932241,32.382464 16.777407,32.008407 16.863376,31.5779 17.15,31.292 l 0.708,-0.707 c 0.252765,-0.252587 0.621084,-0.351138 0.966213,-0.25853 0.345129,0.09261 0.614636,0.362305 0.707,0.7075 0.09236,0.345195 -0.0064,0.713443 -0.259213,0.96603 l -0.708,0.708 C 18.376344,32.895183 18.122051,33.000209 17.857,33 Z" />
        <path
           inkscape:connector-curvature="0"
           id="path33"
           d="M 19.979,35.121 C 19.574604,35.120914 19.210066,34.877273 19.055322,34.503655 18.900578,34.130037 18.986092,33.699994 19.272,33.414 l 0.707,-0.707 c 0.390465,-0.390741 1.023759,-0.390965 1.4145,-5e-4 0.390741,0.390465 0.390965,1.023758 5e-4,1.4145 l -0.707,0.707 c -0.187738,0.187795 -0.442459,0.293209 -0.708,0.293 z" />
        <path
           inkscape:connector-curvature="0"
           id="path35"
           d="M 31.293,19.565 C 30.888604,19.564914 30.524066,19.321273 30.369322,18.947655 30.214578,18.574037 30.300092,18.143994 30.586,17.858 l 0.707,-0.707 c 0.392379,-0.378972 1.016085,-0.373552 1.401819,0.01218 0.385733,0.385734 0.391153,1.00944 0.01218,1.401819 L 32,19.272 c -0.187493,0.187549 -0.441805,0.292943 -0.707,0.293 z" />
        <path
           inkscape:connector-curvature="0"
           id="path37"
           d="M 33.414,21.687 C 33.009164,21.687319 32.644076,21.44352 32.489241,21.069464 32.334407,20.695407 32.420376,20.2649 32.707,19.979 l 0.707,-0.707 c 0.251075,-0.259957 0.622878,-0.364213 0.972507,-0.272697 0.34963,0.09151 0.622675,0.36456 0.71419,0.71419 0.09152,0.349629 -0.01274,0.721433 -0.272697,0.972507 l -0.707,0.708 c -0.187493,0.187549 -0.441805,0.292943 -0.707,0.293 z" />
      </g>
      <path
         style="fill:#c03a2b"
         inkscape:connector-curvature="0"
         id="path41"
         d="m 11,21 c -0.552285,0 -1,-0.447715 -1,-1 V 3 C 10.000053,2.4950976 10.376473,2.0694382 10.877578,2.0076268 11.378682,1.9458154 11.847256,2.2672446 11.97,2.757 12.768,5.946 17.949,6 18,6 18.552285,6 19,6.4477152 19,7 19,7.5522847 18.552285,8 18,8 15.86761,7.9820155 13.785178,7.3524267 12,6.186 V 20 c 0,0.265216 -0.105357,0.51957 -0.292893,0.707107 C 11.51957,20.894643 11.265216,21 11,21 Z" />
      <path
         style="fill:#c03a2b"
         inkscape:connector-curvature="0"
         id="path43"
         d="m 62,42 v 16 c 0,0.552285 -0.447715,1 -1,1 -0.552285,0 -1,-0.447715 -1,-1 V 45 h -9 v 13 c 0,0.552285 -0.447715,1 -1,1 -0.552285,0 -1,-0.447715 -1,-1 V 42 c 0.0033,-1.103202 0.896798,-1.996705 2,-2 h 9 c 1.103202,0.0033 1.996705,0.896798 2,2 z" />
      <ellipse
         style="fill:#e64c3c"
         id="ellipse45"
         cx="8"
         cy="20"
         rx="4"
         ry="3" />
      <ellipse
         style="fill:#e64c3c"
         id="ellipse47"
         cx="47"
         cy="58"
         rx="4"
         ry="3" />
      <ellipse
         style="fill:#e64c3c"
         id="ellipse49"
         cx="58"
         cy="58"
         rx="4"
         ry="3" />
    </g>
  </g>
</svg>
