<?xml version="1.0" encoding="UTF-8" standalone="no"?>
<!-- Created with Inkscape (http://www.inkscape.org/) -->

<svg
   xmlns:dc="http://purl.org/dc/elements/1.1/"
   xmlns:cc="http://creativecommons.org/ns#"
   xmlns:rdf="http://www.w3.org/1999/02/22-rdf-syntax-ns#"
   xmlns:svg="http://www.w3.org/2000/svg"
   xmlns="http://www.w3.org/2000/svg"
   xmlns:sodipodi="http://sodipodi.sourceforge.net/DTD/sodipodi-0.dtd"
   xmlns:inkscape="http://www.inkscape.org/namespaces/inkscape"
   width="1000"
   height="1000"
   viewBox="0 0 264.58333 264.58334"
   version="1.1"
   id="svg8"
   inkscape:version="0.92.3 (2405546, 2018-03-11)"
   sodipodi:docname="Иконка.svg">
  <defs
     id="defs2" />
  <sodipodi:namedview
     id="base"
     pagecolor="#ffffff"
     bordercolor="#666666"
     borderopacity="1.0"
     inkscape:pageopacity="0.0"
     inkscape:pageshadow="2"
     inkscape:zoom="0.64209777"
     inkscape:cx="-37.684062"
     inkscape:cy="630.17095"
     inkscape:document-units="mm"
     inkscape:current-layer="layer1"
     showgrid="false"
     units="px"
     showguides="true"
     inkscape:guide-bbox="true"
     inkscape:window-width="1920"
     inkscape:window-height="1018"
     inkscape:window-x="-8"
     inkscape:window-y="-8"
     inkscape:window-maximized="1"
     inkscape:measure-start="1000,160"
     inkscape:measure-end="1000,0"
     inkscape:lockguides="false">
    <inkscape:grid
       type="xygrid"
       id="grid1368" />
    <sodipodi:guide
       position="31.75,291.04167"
       orientation="1,0"
       id="guide1387"
       inkscape:locked="false" />
    <sodipodi:guide
       position="232.83333,296.33334"
       orientation="1,0"
       id="guide1389"
       inkscape:locked="false" />
    <sodipodi:guide
       position="-31.75,232.83333"
       orientation="0,1"
       id="guide1391"
       inkscape:locked="false" />
    <sodipodi:guide
       position="-37.041667,31.75"
       orientation="0,1"
       id="guide1393"
       inkscape:locked="false" />
    <sodipodi:guide
       position="270.66875,132.29167"
       orientation="0,1"
       id="guide1633"
       inkscape:locked="false" />
  </sodipodi:namedview>
  <metadata
     id="metadata5">
    <rdf:RDF>
      <cc:Work
         rdf:about="">
        <dc:format>image/svg+xml</dc:format>
        <dc:type
           rdf:resource="http://purl.org/dc/dcmitype/StillImage" />
        <dc:title />
      </cc:Work>
    </rdf:RDF>
  </metadata>
  <g
     inkscape:label="Layer 1"
     inkscape:groupmode="layer"
     id="layer1"
     transform="translate(0,-32.41665)">
    <rect
       style="opacity:1;fill:#c76e40;fill-opacity:0.58974361;stroke:none;stroke-width:0.37041664;stroke-linecap:square;stroke-miterlimit:4;stroke-dasharray:none;stroke-opacity:1;paint-order:markers fill stroke"
       id="rect1370"
       width="264.58334"
       height="132.29167"
       x="0"
       y="32.416649" />
    <rect
       style="opacity:1;fill:#919191;fill-opacity:0.58974361;stroke:none;stroke-width:0.37041667;stroke-linecap:square;stroke-miterlimit:4;stroke-dasharray:none;stroke-opacity:1;paint-order:markers fill stroke"
       id="rect1370-1"
       width="264.58337"
       height="132.29167"
       x="-3.1153362e-005"
       y="164.70831" />
    <rect
       style="opacity:1;fill:#696969;fill-opacity:0.50980395;stroke:none;stroke-width:0.54772252;stroke-linecap:square;stroke-miterlimit:4;stroke-dasharray:none;stroke-opacity:1;paint-order:markers fill stroke"
       id="rect1431"
       width="264.58334"
       height="1.5874995"
       x="-6.5204141e-013"
       y="163.91457" />
    <rect
       style="opacity:1;fill:#696969;fill-opacity:0.50980395;stroke:none;stroke-width:0.54772258;stroke-linecap:square;stroke-miterlimit:4;stroke-dasharray:none;stroke-opacity:1;paint-order:markers fill stroke"
       id="rect1431-6"
       width="264.58337"
       height="1.5874995"
       x="-2.8749308e-005"
       y="207.57082" />
    <rect
       style="opacity:1;fill:#696969;fill-opacity:0.50980395;stroke:none;stroke-width:0.54772258;stroke-linecap:square;stroke-miterlimit:4;stroke-dasharray:none;stroke-opacity:1;paint-order:markers fill stroke"
       id="rect1431-8"
       width="264.58337"
       height="1.5874995"
       x="-4.5006476e-005"
       y="251.22707" />
    <rect
       style="opacity:1;fill:#696969;fill-opacity:0.50854701;stroke:none;stroke-width:0.54772258;stroke-linecap:square;stroke-miterlimit:4;stroke-dasharray:none;stroke-opacity:1;paint-order:markers fill stroke"
       id="rect1431-6-1"
       width="264.58337"
       height="1.5874995"
       x="-3.5603844e-005"
       y="120.25832" />
    <rect
       style="opacity:1;fill:#696969;fill-opacity:0.50980395;stroke:none;stroke-width:0.54772258;stroke-linecap:square;stroke-miterlimit:4;stroke-dasharray:none;stroke-opacity:1;paint-order:markers fill stroke"
       id="rect1431-6-9"
       width="264.58337"
       height="1.5874995"
       x="-3.5603844e-005"
       y="76.602066" />
    <rect
       style="opacity:1;fill:#696969;fill-opacity:0.50980395;stroke:none;stroke-width:0.54772258;stroke-linecap:square;stroke-miterlimit:4;stroke-dasharray:none;stroke-opacity:1;paint-order:markers fill stroke"
       id="rect1431-6-9-5"
       width="264.58337"
       height="1.5874995"
       x="-297.00235"
       y="84.665771"
       transform="rotate(-90.001579)" />
    <rect
       style="opacity:1;fill:#696969;fill-opacity:0.50980395;stroke:none;stroke-width:0.54772258;stroke-linecap:square;stroke-miterlimit:4;stroke-dasharray:none;stroke-opacity:1;paint-order:markers fill stroke"
       id="rect1431-6-9-5-4"
       width="264.58337"
       height="1.5874995"
       x="-297.00497"
       y="178.32826"
       transform="rotate(-90.001579)" />
    <g
       transform="matrix(0.32832074,0,0,0.32832074,47.990478,79.985874)"
       id="g920">
      <path
         inkscape:connector-curvature="0"
         id="path2"
         d="m 405.439,221.126 c 0.385,0.118 0.579,0.533 0.422,0.904 -2.603,6.166 -23.1,52.416 -59.086,69.225 -44.695,20.876 -63.228,-12.644 -63.228,-12.644 0,0 -13.811,-35.725 30.884,-56.602 35.987,-16.809 84.609,-2.844 91.008,-0.883 z"
         style="fill:#80c56e" />
      <path
         inkscape:connector-curvature="0"
         id="path4"
         d="m 346.775,291.254 c 35.987,-16.809 56.484,-63.059 59.086,-69.224 0.156,-0.371 -0.037,-0.786 -0.422,-0.904 L 283.547,278.61 c 10e-4,10e-4 18.533,33.521 63.228,12.644 z"
         style="fill:#66ad66" />
      <path
         inkscape:connector-curvature="0"
         id="path6"
         d="m 106.561,221.126 c -0.385,0.118 -0.579,0.533 -0.422,0.904 2.603,6.166 23.1,52.416 59.086,69.225 44.695,20.876 63.228,-12.644 63.228,-12.644 0,0 13.811,-35.725 -30.884,-56.602 -35.987,-16.809 -84.609,-2.844 -91.008,-0.883 z"
         style="fill:#80c56e" />
      <path
         inkscape:connector-curvature="0"
         id="path8"
         d="m 165.225,291.254 c 44.695,20.877 63.228,-12.644 63.228,-12.644 L 106.17,221.453 c -0.092,0.171 -0.114,0.378 -0.03,0.577 2.601,6.166 23.098,52.415 59.085,69.224 z"
         style="fill:#66ad66" />
      <path
         inkscape:connector-curvature="0"
         id="path10"
         d="M 263.726,279.464 V 130.662 c 0,-4.267 -3.459,-7.726 -7.726,-7.726 -4.267,0 -7.726,3.459 -7.726,7.726 V 279.463 C 217.55,265.989 107.902,218.17 106.349,221.494 c -1.614,3.456 116.81,62.26 141.925,74.681 v 60.35 c 0,4.267 3.459,7.726 7.726,7.726 4.267,0 7.726,-3.459 7.726,-7.726 v -60.35 c 25.114,-12.421 143.539,-71.224 141.925,-74.681 -1.552,-3.323 -111.201,44.496 -141.925,57.97 z"
         style="fill:#4d984e" />
      <path
         style="fill:#fc5e71"
         d="m 278.24,25.829 c 0,20.048 -9.957,57.706 -22.24,57.706 -12.283,0 -22.24,-37.659 -22.24,-57.706 C 233.76,5.782 243.717,0 256,0 c 12.283,0 22.24,5.782 22.24,25.829 z"
         id="path12"
         inkscape:connector-curvature="0" />
      <path
         style="fill:#fc5e71"
         d="m 278.24,175.726 c 0,-20.048 -9.957,-57.706 -22.24,-57.706 -12.283,0 -22.24,37.659 -22.24,57.706 0,20.047 9.957,25.829 22.24,25.829 12.283,0 22.24,-5.781 22.24,-25.829 z"
         id="path14"
         inkscape:connector-curvature="0" />
      <g
         id="g22">
        <path
           inkscape:connector-curvature="0"
           id="path18"
           d="m 324.723,63.507 c -14.176,14.176 -47.845,33.764 -56.53,25.078 -8.685,-8.686 10.903,-42.355 25.078,-56.53 14.176,-14.176 25.305,-11.223 33.99,-2.538 8.685,8.685 11.637,19.814 -2.538,33.99 z"
           style="fill:#fd747f" />
        <path
           inkscape:connector-curvature="0"
           id="path20"
           d="m 218.73,169.5 c 14.176,-14.176 33.764,-47.845 25.078,-56.53 -8.685,-8.685 -42.355,10.903 -56.53,25.078 -14.176,14.176 -11.223,25.305 -2.538,33.99 8.685,8.685 19.814,11.638 33.99,-2.538 z"
           style="fill:#fd747f" />
      </g>
      <g
         id="g28">
        <path
           inkscape:connector-curvature="0"
           id="path24-1"
           d="m 330.948,123.018 c -20.048,0 -57.706,-9.957 -57.706,-22.24 0,-12.283 37.659,-22.24 57.706,-22.24 20.047,0 25.829,9.957 25.829,22.24 0,12.283 -5.781,22.24 -25.829,22.24 z"
           style="fill:#fc5e71" />
        <path
           inkscape:connector-curvature="0"
           id="path26"
           d="m 181.052,123.018 c 20.048,0 57.706,-9.957 57.706,-22.24 0,-12.283 -37.659,-22.24 -57.706,-22.24 -20.047,0 -25.829,9.957 -25.829,22.24 0,12.283 5.781,22.24 25.829,22.24 z"
           style="fill:#fc5e71" />
      </g>
      <g
         id="g34">
        <path
           inkscape:connector-curvature="0"
           id="path30"
           d="m 293.27,169.5 c -14.176,-14.176 -33.764,-47.845 -25.078,-56.53 8.686,-8.685 42.355,10.903 56.53,25.078 14.176,14.176 11.223,25.305 2.538,33.99 -8.685,8.685 -19.814,11.638 -33.99,-2.538 z"
           style="fill:#fd747f" />
        <path
           inkscape:connector-curvature="0"
           id="path32"
           d="m 187.277,63.507 c 14.176,14.176 47.845,33.764 56.53,25.078 8.685,-8.685 -10.903,-42.355 -25.078,-56.53 -14.175,-14.175 -25.305,-11.223 -33.99,-2.538 -8.685,8.685 -11.637,19.814 2.538,33.99 z"
           style="fill:#fd747f" />
      </g>
      <g
         id="g40">
        <circle
           id="circle36"
           r="26.513"
           cy="100.78"
           cx="256"
           style="fill:#fec37d" />
        <path
           inkscape:connector-curvature="0"
           id="path38"
           d="M 314.404,512 H 197.596 c -4.805,0 -8.944,-3.387 -9.895,-8.097 L 156.755,350.594 h 198.489 l -30.946,153.309 c -0.95,4.71 -5.089,8.097 -9.894,8.097 z"
           style="fill:#fec37d" />
      </g>
      <path
         inkscape:connector-curvature="0"
         id="path42"
         d="m 303.735,350.594 -30.946,153.309 c -0.951,4.71 -5.09,8.097 -9.895,8.097 h 51.509 c 4.805,0 8.944,-3.387 9.895,-8.097 l 30.946,-153.309 z"
         style="fill:#f9ae5d" />
      <path
         inkscape:connector-curvature="0"
         id="path44"
         d="M 370.297,377.907 H 141.703 c -2.916,0 -5.279,-2.363 -5.279,-5.279 v -27.36 c 0,-2.916 2.364,-5.279 5.279,-5.279 h 228.594 c 2.916,0 5.279,2.363 5.279,5.279 v 27.36 c 0,2.916 -2.363,5.279 -5.279,5.279 z"
         style="fill:#f2a559" />
      <path
         inkscape:connector-curvature="0"
         id="path46"
         d="M 370.297,339.989 H 323.22 v 37.918 h 47.077 c 2.916,0 5.279,-2.363 5.279,-5.279 v -27.36 c 0,-2.915 -2.363,-5.279 -5.279,-5.279 z"
         style="fill:#ea8f3d" />
      <polygon
         id="polygon48"
         points="339.416,429.011 172.584,429.011 175.703,444.463 336.297,444.463 "
         style="fill:#f2a559" />
      <polygon
         id="polygon50"
         points="284.788,444.463 336.297,444.463 337.627,437.875 339.416,429.011 287.907,429.011 "
         style="fill:#ea8f3d" />
    </g>
  </g>
</svg>
