<?xml version="1.0" encoding="UTF-8" standalone="no"?>
<!-- Created with Inkscape (http://www.inkscape.org/) -->

<svg
   xmlns:dc="http://purl.org/dc/elements/1.1/"
   xmlns:cc="http://creativecommons.org/ns#"
   xmlns:rdf="http://www.w3.org/1999/02/22-rdf-syntax-ns#"
   xmlns:svg="http://www.w3.org/2000/svg"
   xmlns="http://www.w3.org/2000/svg"
   xmlns:sodipodi="http://sodipodi.sourceforge.net/DTD/sodipodi-0.dtd"
   xmlns:inkscape="http://www.inkscape.org/namespaces/inkscape"
   width="1000"
   height="1000"
   viewBox="0 0 264.58333 264.58334"
   version="1.1"
   id="svg8"
   inkscape:version="0.92.3 (2405546, 2018-03-11)"
   sodipodi:docname="Иконка.svg">
  <defs
     id="defs2" />
  <sodipodi:namedview
     id="base"
     pagecolor="#ffffff"
     bordercolor="#666666"
     borderopacity="1.0"
     inkscape:pageopacity="0.0"
     inkscape:pageshadow="2"
     inkscape:zoom="0.64209777"
     inkscape:cx="243.56764"
     inkscape:cy="529.20556"
     inkscape:document-units="mm"
     inkscape:current-layer="layer1"
     showgrid="false"
     units="px"
     showguides="true"
     inkscape:guide-bbox="true"
     inkscape:window-width="1920"
     inkscape:window-height="1018"
     inkscape:window-x="-8"
     inkscape:window-y="-8"
     inkscape:window-maximized="1"
     inkscape:measure-start="1000,160"
     inkscape:measure-end="1000,0"
     inkscape:lockguides="false">
    <inkscape:grid
       type="xygrid"
       id="grid1368" />
    <sodipodi:guide
       position="31.75,291.04167"
       orientation="1,0"
       id="guide1387"
       inkscape:locked="false" />
    <sodipodi:guide
       position="232.83333,296.33334"
       orientation="1,0"
       id="guide1389"
       inkscape:locked="false" />
    <sodipodi:guide
       position="-31.75,232.83333"
       orientation="0,1"
       id="guide1391"
       inkscape:locked="false" />
    <sodipodi:guide
       position="-37.041667,31.75"
       orientation="0,1"
       id="guide1393"
       inkscape:locked="false" />
    <sodipodi:guide
       position="270.66875,132.29167"
       orientation="0,1"
       id="guide1633"
       inkscape:locked="false" />
  </sodipodi:namedview>
  <metadata
     id="metadata5">
    <rdf:RDF>
      <cc:Work
         rdf:about="">
        <dc:format>image/svg+xml</dc:format>
        <dc:type
           rdf:resource="http://purl.org/dc/dcmitype/StillImage" />
        <dc:title />
      </cc:Work>
    </rdf:RDF>
  </metadata>
  <g
     inkscape:label="Layer 1"
     inkscape:groupmode="layer"
     id="layer1"
     transform="translate(0,-32.41665)">
    <rect
       style="opacity:1;fill:#c76e40;fill-opacity:0.58974361;stroke:none;stroke-width:0.37041664;stroke-linecap:square;stroke-miterlimit:4;stroke-dasharray:none;stroke-opacity:1;paint-order:markers fill stroke"
       id="rect1370"
       width="264.58334"
       height="132.29167"
       x="0"
       y="32.416649" />
    <rect
       style="opacity:1;fill:#919191;fill-opacity:0.58974361;stroke:none;stroke-width:0.37041667;stroke-linecap:square;stroke-miterlimit:4;stroke-dasharray:none;stroke-opacity:1;paint-order:markers fill stroke"
       id="rect1370-1"
       width="264.58337"
       height="132.29167"
       x="-3.1153362e-005"
       y="164.70831" />
    <rect
       style="opacity:1;fill:#696969;fill-opacity:0.50980395;stroke:none;stroke-width:0.54772252;stroke-linecap:square;stroke-miterlimit:4;stroke-dasharray:none;stroke-opacity:1;paint-order:markers fill stroke"
       id="rect1431"
       width="264.58334"
       height="1.5874995"
       x="-6.5204141e-013"
       y="163.91457" />
    <rect
       style="opacity:1;fill:#696969;fill-opacity:0.50980395;stroke:none;stroke-width:0.54772258;stroke-linecap:square;stroke-miterlimit:4;stroke-dasharray:none;stroke-opacity:1;paint-order:markers fill stroke"
       id="rect1431-6"
       width="264.58337"
       height="1.5874995"
       x="-2.8749308e-005"
       y="207.57082" />
    <rect
       style="opacity:1;fill:#696969;fill-opacity:0.50980395;stroke:none;stroke-width:0.54772258;stroke-linecap:square;stroke-miterlimit:4;stroke-dasharray:none;stroke-opacity:1;paint-order:markers fill stroke"
       id="rect1431-8"
       width="264.58337"
       height="1.5874995"
       x="-4.5006476e-005"
       y="251.22707" />
    <rect
       style="opacity:1;fill:#696969;fill-opacity:0.50854701;stroke:none;stroke-width:0.54772258;stroke-linecap:square;stroke-miterlimit:4;stroke-dasharray:none;stroke-opacity:1;paint-order:markers fill stroke"
       id="rect1431-6-1"
       width="264.58337"
       height="1.5874995"
       x="-3.5603844e-005"
       y="120.25832" />
    <rect
       style="opacity:1;fill:#696969;fill-opacity:0.50980395;stroke:none;stroke-width:0.54772258;stroke-linecap:square;stroke-miterlimit:4;stroke-dasharray:none;stroke-opacity:1;paint-order:markers fill stroke"
       id="rect1431-6-9"
       width="264.58337"
       height="1.5874995"
       x="-3.5603844e-005"
       y="76.602066" />
    <rect
       style="opacity:1;fill:#696969;fill-opacity:0.50980395;stroke:none;stroke-width:0.54772258;stroke-linecap:square;stroke-miterlimit:4;stroke-dasharray:none;stroke-opacity:1;paint-order:markers fill stroke"
       id="rect1431-6-9-5"
       width="264.58337"
       height="1.5874995"
       x="-297.00235"
       y="84.665771"
       transform="rotate(-90.001579)" />
    <rect
       style="opacity:1;fill:#696969;fill-opacity:0.50980395;stroke:none;stroke-width:0.54772258;stroke-linecap:square;stroke-miterlimit:4;stroke-dasharray:none;stroke-opacity:1;paint-order:markers fill stroke"
       id="rect1431-6-9-5-4"
       width="264.58337"
       height="1.5874995"
       x="-297.00497"
       y="178.32826"
       transform="rotate(-90.001579)" />
    <g
       id="g4622"
       transform="matrix(0.3405543,0,0,0.3405543,48.480815,79.826377)">
      <polygon
         id="polygon2"
         points="144,95.36 144,101.168 144,216 216,216 216,144 264,144 264,216 336,216 336,97 336,96 336,93.736 240,32 144,93.696 "
         style="fill:#ffce54" />
      <path
         id="path4"
         d="M 320,424 H 160 c 0,-17.68 -14.32,-32 -32,-32 v -48 c 17.68,0 32,-14.32 32,-32 h 160 c 0,17.68 14.32,32 32,32 v 48 c -17.68,0 -32,14.32 -32,32 z m -80,-24 c 17.68,0 32,-14.32 32,-32 0,-17.68 -14.32,-32 -32,-32 -17.68,0 -32,14.32 -32,32 0,17.68 14.32,32 32,32 z"
         style="fill:#a0d468"
         inkscape:connector-curvature="0" />
      <rect
         id="rect6"
         height="112"
         width="32"
         style="fill:#8cc152"
         y="312"
         x="320" />
      <rect
         id="rect8"
         height="24"
         width="224"
         style="fill:#6b9922"
         y="472"
         x="128" />
      <rect
         id="rect10"
         height="24"
         width="224"
         style="fill:#74a52f"
         y="448"
         x="128" />
      <polygon
         id="polygon12"
         points="352,424 352,448 128,448 128,424 160,424 320,424 "
         style="fill:#81b53e" />
      <g
         id="g20">
        <path
           id="path14"
           d="m 128,312 h 32 c 0,17.68 -14.32,32 -32,32 z"
           style="fill:#8cc152"
           inkscape:connector-curvature="0" />
        <path
           id="path16"
           d="m 160,424 h -32 v -32 c 17.68,0 32,14.32 32,32 z"
           style="fill:#8cc152"
           inkscape:connector-curvature="0" />
        <circle
           id="circle18"
           r="32"
           cy="368"
           cx="240"
           style="fill:#8cc152" />
      </g>
      <g
         id="g26">
        <path
           id="path22"
           d="m 352,392 v 32 h -32 c 0,-17.68 14.32,-32 32,-32 z"
           style="fill:#81b53e"
           inkscape:connector-curvature="0" />
        <path
           id="path24-7"
           d="m 352,312 v 32 c -17.68,0 -32,-14.32 -32,-32 z"
           style="fill:#81b53e"
           inkscape:connector-curvature="0" />
      </g>
      <g
         id="g32">
        <polygon
           id="polygon28"
           points="128,104 128,72 240,0 352,72 352,104 337.04,94.4 240,32 143.28,94.16 "
           style="fill:#ed5565" />
        <rect
           id="rect30"
           height="72"
           width="48"
           style="fill:#ed5565"
           y="144"
           x="216" />
      </g>
      <rect
         id="rect34"
         height="24"
         width="32"
         style="fill:#74a52f"
         y="424"
         x="320" />
      <rect
         id="rect36"
         height="24"
         width="32"
         style="fill:#6b9922"
         y="448"
         x="320" />
      <rect
         id="rect38"
         height="24"
         width="32"
         style="fill:#608c0c"
         y="472"
         x="320" />
      <polygon
         id="polygon40"
         points="336,96 336,93.736 304,73.16 304,216 336,216 336,111.248 "
         style="fill:#f6bb42" />
      <polygon
         id="polygon42"
         points="320,51.432 320,83.448 337.04,94.4 352,104 352,72 "
         style="fill:#da4453" />
      <g
         id="g50">
        <path
           id="path44"
           d="M 352,208 H 128 c -4.424,0 -8,3.576 -8,8 0,4.424 3.576,8 8,8 h 224 c 4.424,0 8,-3.576 8,-8 0,-4.424 -3.576,-8 -8,-8 z"
           style="fill:#656d78"
           inkscape:connector-curvature="0" />
        <path
           id="path46"
           d="m 71.768,133.512 v 0 c -0.008,-0.008 -0.008,-0.016 -0.008,-0.024 -0.104,-0.304 -0.328,-0.52 -0.464,-0.808 -0.216,-0.496 -0.464,-0.944 -0.784,-1.392 -0.128,-0.168 -0.176,-0.384 -0.312,-0.536 -0.24,-0.28 -0.576,-0.44 -0.848,-0.68 -0.224,-0.192 -0.36,-0.464 -0.608,-0.632 -0.152,-0.104 -0.32,-0.12 -0.48,-0.2 -0.168,-0.112 -0.296,-0.28 -0.488,-0.376 -0.336,-0.168 -0.736,-0.184 -1.096,-0.312 -0.008,0 -0.008,0 -0.016,-0.008 -0.448,-0.152 -0.864,-0.304 -1.32,-0.376 -0.176,-0.024 -0.344,-0.128 -0.52,-0.144 -0.312,-0.024 -0.632,0.104 -0.952,0.12 -0.008,0 -0.024,0 -0.04,0 -0.552,0.024 -1.096,0.056 -1.632,0.192 -0.168,0.048 -0.352,0.008 -0.52,0.064 l -0.008,0.008 c -0.008,0 -0.016,0 -0.024,0 l -24.16,7.992 c -4.184,1.384 -6.472,5.912 -5.08,10.112 1.104,3.352 4.232,5.48 7.592,5.48 0.832,0 1.68,-0.136 2.512,-0.408 l 3.24,-1.072 C 26.304,185.056 16,223.832 16,264 c 0,47.696 14.368,93.52 41.552,132.528 1.552,2.224 4.04,3.424 6.568,3.424 1.576,0 3.168,-0.472 4.568,-1.44 3.624,-2.52 4.504,-7.512 1.984,-11.144 C 45.376,351.08 32,308.416 32,264 32,225.12 42.248,187.584 61.792,154.488 l 2.608,8 c 1.104,3.368 4.232,5.512 7.6,5.512 0.824,0 1.656,-0.128 2.488,-0.4 4.192,-1.368 6.496,-5.88 5.12,-10.088 z"
           style="fill:#656d78"
           inkscape:connector-curvature="0" />
        <path
           id="path48"
           d="m 453.488,376.368 -3.248,1.072 C 469.696,342.896 480,304.12 480,263.952 c 0,-47.696 -14.368,-93.52 -41.552,-132.528 -2.52,-3.616 -7.504,-4.504 -11.144,-1.984 -3.624,2.52 -4.504,7.512 -1.984,11.144 25.304,36.288 38.68,78.952 38.68,123.368 0,38.88 -10.248,76.416 -29.792,109.512 l -2.608,-8 c -1.368,-4.192 -5.84,-6.504 -10.088,-5.12 -4.192,1.368 -6.496,5.88 -5.12,10.088 l 7.832,24 c 0,0 0,0.008 0.008,0.008 0,0.008 0,0.016 0,0.024 0.136,0.408 0.384,0.728 0.568,1.096 0.152,0.288 0.256,0.584 0.448,0.856 0.032,0.048 0.048,0.112 0.08,0.16 0.032,0.04 0.048,0.104 0.08,0.152 0.512,0.688 1.136,1.28 1.824,1.768 0.008,0.008 0.016,0.016 0.024,0.024 0.336,0.232 0.72,0.352 1.08,0.52 0.312,0.16 0.608,0.36 0.936,0.48 0.04,0.008 0.072,0.04 0.112,0.048 0.016,0.008 0.032,0.008 0.048,0.016 0.784,0.24 1.592,0.376 2.4,0.376 v 0 c 0.008,0 0.008,0 0.008,0 0.824,0 1.656,-0.128 2.488,-0.4 l 0.008,-0.008 c 0.008,0 0.016,0 0.024,0 l 24.168,-7.992 c 4.184,-1.384 6.472,-5.912 5.08,-10.112 -1.4,-4.192 -5.896,-6.456 -10.12,-5.08 z"
           style="fill:#656d78"
           inkscape:connector-curvature="0" />
      </g>
    </g>
  </g>
</svg>
