<?xml version="1.0" encoding="UTF-8" standalone="no"?>
<!-- Created with Inkscape (http://www.inkscape.org/) -->

<svg
   xmlns:dc="http://purl.org/dc/elements/1.1/"
   xmlns:cc="http://creativecommons.org/ns#"
   xmlns:rdf="http://www.w3.org/1999/02/22-rdf-syntax-ns#"
   xmlns:svg="http://www.w3.org/2000/svg"
   xmlns="http://www.w3.org/2000/svg"
   xmlns:sodipodi="http://sodipodi.sourceforge.net/DTD/sodipodi-0.dtd"
   xmlns:inkscape="http://www.inkscape.org/namespaces/inkscape"
   width="1000"
   height="1000"
   viewBox="0 0 264.58333 264.58334"
   version="1.1"
   id="svg8"
   inkscape:version="0.92.3 (2405546, 2018-03-11)"
   sodipodi:docname="Иконка.svg">
  <defs
     id="defs2">
    <pattern
       y="0"
       x="0"
       height="6"
       width="6"
       patternUnits="userSpaceOnUse"
       id="EMFhbasepattern" />
  </defs>
  <sodipodi:namedview
     id="base"
     pagecolor="#ffffff"
     bordercolor="#666666"
     borderopacity="1.0"
     inkscape:pageopacity="0.0"
     inkscape:pageshadow="2"
     inkscape:zoom="0.45403169"
     inkscape:cx="307.65068"
     inkscape:cy="371.348"
     inkscape:document-units="mm"
     inkscape:current-layer="layer1"
     showgrid="false"
     units="px"
     showguides="true"
     inkscape:guide-bbox="true"
     inkscape:window-width="2560"
     inkscape:window-height="1378"
     inkscape:window-x="-8"
     inkscape:window-y="-8"
     inkscape:window-maximized="1"
     inkscape:measure-start="1000,160"
     inkscape:measure-end="1000,0"
     inkscape:lockguides="false">
    <inkscape:grid
       type="xygrid"
       id="grid1368" />
    <sodipodi:guide
       position="31.75,291.04167"
       orientation="1,0"
       id="guide1387"
       inkscape:locked="false" />
    <sodipodi:guide
       position="232.83333,296.33334"
       orientation="1,0"
       id="guide1389"
       inkscape:locked="false" />
    <sodipodi:guide
       position="-31.75,232.83333"
       orientation="0,1"
       id="guide1391"
       inkscape:locked="false" />
    <sodipodi:guide
       position="-37.041667,31.75"
       orientation="0,1"
       id="guide1393"
       inkscape:locked="false" />
    <sodipodi:guide
       position="270.66875,132.29167"
       orientation="0,1"
       id="guide1633"
       inkscape:locked="false" />
  </sodipodi:namedview>
  <metadata
     id="metadata5">
    <rdf:RDF>
      <cc:Work
         rdf:about="">
        <dc:format>image/svg+xml</dc:format>
        <dc:type
           rdf:resource="http://purl.org/dc/dcmitype/StillImage" />
        <dc:title />
      </cc:Work>
    </rdf:RDF>
  </metadata>
  <g
     inkscape:label="Layer 1"
     inkscape:groupmode="layer"
     id="layer1"
     transform="translate(0,-32.41665)">
    <rect
       style="opacity:1;fill:#c76e40;fill-opacity:0.58974361;stroke:none;stroke-width:0.37041664;stroke-linecap:square;stroke-miterlimit:4;stroke-dasharray:none;stroke-opacity:1;paint-order:markers fill stroke"
       id="rect1370"
       width="264.58334"
       height="132.29167"
       x="0"
       y="32.416649" />
    <rect
       style="opacity:1;fill:#919191;fill-opacity:0.58974361;stroke:none;stroke-width:0.37041667;stroke-linecap:square;stroke-miterlimit:4;stroke-dasharray:none;stroke-opacity:1;paint-order:markers fill stroke"
       id="rect1370-1"
       width="264.58337"
       height="132.29167"
       x="-3.1153362e-005"
       y="164.70831" />
    <rect
       style="opacity:1;fill:#696969;fill-opacity:0.50980395;stroke:none;stroke-width:0.54772252;stroke-linecap:square;stroke-miterlimit:4;stroke-dasharray:none;stroke-opacity:1;paint-order:markers fill stroke"
       id="rect1431"
       width="264.58334"
       height="1.5874995"
       x="-6.5204141e-013"
       y="163.91457" />
    <rect
       style="opacity:1;fill:#696969;fill-opacity:0.50980395;stroke:none;stroke-width:0.54772258;stroke-linecap:square;stroke-miterlimit:4;stroke-dasharray:none;stroke-opacity:1;paint-order:markers fill stroke"
       id="rect1431-6"
       width="264.58337"
       height="1.5874995"
       x="-2.8749308e-005"
       y="207.57082" />
    <rect
       style="opacity:1;fill:#696969;fill-opacity:0.50980395;stroke:none;stroke-width:0.54772258;stroke-linecap:square;stroke-miterlimit:4;stroke-dasharray:none;stroke-opacity:1;paint-order:markers fill stroke"
       id="rect1431-8"
       width="264.58337"
       height="1.5874995"
       x="-4.5006476e-005"
       y="251.22707" />
    <rect
       style="opacity:1;fill:#696969;fill-opacity:0.50854701;stroke:none;stroke-width:0.54772258;stroke-linecap:square;stroke-miterlimit:4;stroke-dasharray:none;stroke-opacity:1;paint-order:markers fill stroke"
       id="rect1431-6-1"
       width="264.58337"
       height="1.5874995"
       x="-3.5603844e-005"
       y="120.25832" />
    <rect
       style="opacity:1;fill:#696969;fill-opacity:0.50980395;stroke:none;stroke-width:0.54772258;stroke-linecap:square;stroke-miterlimit:4;stroke-dasharray:none;stroke-opacity:1;paint-order:markers fill stroke"
       id="rect1431-6-9"
       width="264.58337"
       height="1.5874995"
       x="-3.5603844e-005"
       y="76.602066" />
    <rect
       style="opacity:1;fill:#696969;fill-opacity:0.50980395;stroke:none;stroke-width:0.54772258;stroke-linecap:square;stroke-miterlimit:4;stroke-dasharray:none;stroke-opacity:1;paint-order:markers fill stroke"
       id="rect1431-6-9-5"
       width="264.58337"
       height="1.5874995"
       x="-297.00235"
       y="84.665771"
       transform="rotate(-90.001579)" />
    <rect
       style="opacity:1;fill:#696969;fill-opacity:0.50980395;stroke:none;stroke-width:0.54772258;stroke-linecap:square;stroke-miterlimit:4;stroke-dasharray:none;stroke-opacity:1;paint-order:markers fill stroke"
       id="rect1431-6-9-5-4"
       width="264.58337"
       height="1.5874995"
       x="-297.00497"
       y="178.32826"
       transform="rotate(-90.001579)" />
    <path
       inkscape:connector-curvature="0"
       style="fill:#f9de8f;stroke-width:0.34306145"
       d="m 219.8044,107.74361 c -1.12524,-1.12524 -2.94896,-1.12524 -4.07489,0 l -33.76033,33.76034 -4.23818,-4.23818 33.76033,-33.76034 c 1.12524,-1.12524 1.12524,-2.94895 0,-4.07488 -1.12524,-1.125242 -2.94895,-1.125242 -4.07488,0 l -33.76034,33.76033 -4.23818,-4.23818 33.76034,-33.760332 c 1.12524,-1.125241 1.12524,-2.948956 0,-4.074884 -1.12524,-1.125241 -2.94896,-1.125241 -4.07489,0 l -33.76033,33.760336 -4.23818,-4.23818 33.76033,-33.760337 c 1.12524,-1.125241 1.12524,-2.948956 0,-4.074884 -1.12524,-1.125241 -2.94895,-1.125241 -4.07488,0 l -41.9101,41.910101 c -6.31645,6.31645 -7.64925,15.72422 -4.00696,23.34979 l -85.424018,75.82104 c -0.286456,0.24323 -0.566394,0.49813 -0.83707,0.76846 -5.34181,5.34112 -5.34181,14.00205 0,19.34318 5.34181,5.34112 14.002053,5.34112 19.343177,0 0.270332,-0.27033 0.525227,-0.55062 0.768457,-0.83707 L 154.5445,157.7359 c 7.62557,3.64194 17.03403,2.3088 23.35014,-4.00696 l 41.90976,-41.9101 c 1.12524,-1.12524 1.12524,-2.94964 0,-4.07523 z"
       id="path2" />
    <polygon
       style="fill:#f7cf6d"
       points="190.571,295.931 227.847,337.927 263.522,297.734 226.03,264.458 "
       id="polygon4"
       transform="matrix(0.34306145,0,0,0.34306145,45.001209,77.157971)" />
    <path
       inkscape:connector-curvature="0"
       style="fill:#7fccde;stroke-width:0.34306145;fill-opacity:1"
       d="M 107.2871,111.81884 C 87.116805,91.648887 62.44211,85.738281 50.869275,97.311802 39.29644,108.88532 45.20636,133.55899 65.377001,153.7286 c 9.902469,9.90247 25.065785,11.32412 36.488019,4.28072 l 75.57815,85.1506 c 0.24323,0.28645 0.49812,0.56639 0.76846,0.83707 5.34112,5.34112 14.00205,5.34112 19.34317,0 5.34113,-5.34181 5.34113,-14.00171 0,-19.34318 -0.27033,-0.27033 -0.54992,-0.52523 -0.83707,-0.76846 L 111.56679,148.3072 c 7.04409,-11.42223 5.62278,-26.58555 -4.27969,-36.48836 z"
       id="path6" />
    <path
       inkscape:connector-curvature="0"
       style="fill:#74b7c8;stroke-width:0.34306145;fill-opacity:1"
       d="m 113.13767,145.39461 c 0.0374,-0.0789 0.0768,-0.15712 0.11321,-0.23671 0.0508,-0.1067 0.0968,-0.21648 0.14683,-0.3242 4.84815,-10.88362 2.81757,-24.08668 -6.11061,-33.01452 -0.36364,-0.3633 -0.72935,-0.72111 -1.09574,-1.07584 2.52116,4.46632 3.96545,9.62082 3.96545,15.11529 0,17.01688 -13.794842,30.81172 -30.811719,30.81172 -5.368912,0 -10.413287,-1.3791 -14.808591,-3.79426 0.277537,0.28474 0.557132,0.56948 0.840501,0.85251 9.520641,9.52064 23.903149,11.19718 35.149729,5.05295 5.44542,-3.07074 9.86508,-7.74461 12.61094,-13.38694 z"
       id="path8" />
  </g>
</svg>
